<svg width="155" height="30" viewBox="0 0 155 30" fill="none" xmlns="http://www.w3.org/2000/svg">
  <g clip-path="url(#clip0_1_360)">
  <mask id="mask0_1_360" style="mask-type:luminance" maskUnits="userSpaceOnUse" x="0" y="0" width="155" height="30">
  <path d="M155 0.5H0V29.5H155V0.5Z" fill="white"/>
  </mask>
  <g mask="url(#mask0_1_360)">
  <path fill-rule="evenodd" clip-rule="evenodd" d="M31.981 11.4475C29.1256 12.6423 26.7958 12.8888 26.6148 12.912C26.9389 12.6394 28.1768 11.5925 28.6497 9.519L28.8308 8.4083C28.2235 8.9071 27.5753 9.3131 26.9476 9.6321C25.1725 10.6268 21.6515 11.1256 18.6006 11.0415C15.5029 10.9574 14.3818 10.505 14.2358 10.4325C14.3263 9.8235 14.5278 9.2029 14.6708 8.8143C15.4883 6.6103 17.5729 4.705 19.3713 4.6006C19.8356 4.5745 20.148 4.6441 20.3582 4.7485C20.5304 4.8326 20.6501 4.9428 20.726 5.0907C20.8165 5.2676 20.8019 5.4387 20.8019 5.4387C20.8019 5.4387 21.4004 4.3019 21.1406 3.8379C21.1056 3.777 21.0151 3.6523 20.9333 3.5624C20.7056 3.313 20.3874 3.0694 20.0983 2.8751C19.9991 2.8026 19.3451 2.4285 19.3451 2.4285C19.4969 1.6513 19.1203 1.1438 17.9554 0.8277C17.0532 0.5812 15.8474 0.6276 14.9307 0.8625C14.6884 0.9263 14.2563 0.9872 13.5205 0.9437C12.9804 0.9089 12.487 0.7958 11.9702 0.5C11.9702 0.5 12.233 1.0191 12.9979 1.4512C12.9979 1.4512 12.4841 1.6339 11.9002 1.6716L11.5965 1.1902C4.96035 2.6576 0 8.5388 0 15.5713C0 20.3273 2.27143 24.5555 5.79243 27.2525C5.85958 27.3047 7.60548 28.6996 9.97033 29.5C9.19957 28.9867 8.55434 28.4212 7.9821 27.7136C7.23178 26.7566 6.89894 26.0316 6.89894 26.0316C7.90912 26.571 9.03899 26.5884 9.03607 26.5855C9.03607 26.5855 8.36165 26.1447 8.05217 25.8518C5.93549 23.8247 5.37201 22.0412 5.0129 20.4636C4.73846 19.2514 4.74722 17.6535 4.74722 17.6535C5.51215 19.0716 6.52232 20.3476 7.97043 21.5134C9.24336 22.3573 12.4695 24.1379 17.7393 24.0654C17.7393 24.0654 16.7233 23.4535 15.7628 22.7053C14.7876 21.9426 13.8884 21.032 13.4943 20.6028C12.1834 19.4109 11.0068 18.0479 9.97325 16.5573C11.0535 18.045 12.7206 20.0837 15.4007 21.9455C17.024 23.0707 18.767 23.8798 18.767 23.8798C21.3946 23.6652 23.2223 23.1055 24.1916 22.7807C24.0952 22.7604 21.6807 22.4182 18.5101 20.6057C18.2298 20.4404 17.9524 20.2664 17.6809 20.0866C17.5437 20.0112 17.4094 19.9329 17.2722 19.8546C17.2255 19.8256 17.1788 19.7966 17.132 19.7705C15.3073 18.6859 13.6198 17.3316 12.1016 15.7511C12.0315 15.6728 11.9615 15.5974 11.8943 15.5191C13.5293 17.204 15.3832 18.6163 17.4036 19.698C17.4503 19.7241 17.497 19.7502 17.5437 19.7734C17.643 19.8401 17.7451 19.901 17.8473 19.9648C17.9145 19.9996 17.9787 20.0373 18.0488 20.0721C20.2472 21.1857 22.6092 21.9223 25.0733 22.2268C26.8075 21.5279 28.3607 20.6318 29.6833 19.6052C29.4877 19.6255 25.7798 20.2084 21.418 18.5322C21.2632 18.4858 21.1085 18.4423 20.9538 18.393C18.2648 17.5491 15.7306 16.1716 13.4651 14.333C13.4154 14.2924 13.2111 14.1126 13.2111 14.1126C13.2111 14.1126 13.4125 14.2721 13.5147 14.3504C15.8241 16.0875 18.3787 17.3635 21.0676 18.1117C21.2428 18.1784 21.418 18.2422 21.5931 18.3031C21.6574 18.3205 21.7216 18.3379 21.7888 18.3553C23.7127 18.8309 25.6981 19.0339 27.7067 18.9469C28.6147 18.9063 29.5256 18.8077 30.4394 18.6482C31.5664 17.6274 32.7255 16.2151 33.1868 15.2523C33.1868 15.2523 29.0118 16.8589 24.2762 15.9889C21.3041 15.7772 18.3933 14.9362 15.6956 13.5152C15.3745 13.347 15.0562 13.1672 14.738 12.9816L13.9906 12.5089C13.9906 12.5089 15.0708 13.1411 15.8007 13.492C18.4926 14.7883 21.4734 15.5974 24.4543 15.7047C29.1227 15.8729 32.5211 14.4838 33.6831 13.9879C33.8407 13.6167 33.9721 13.2426 34.0801 12.8656C34.2612 12.2305 34.3721 11.5925 34.4013 10.9545C34.413 10.7196 34.4159 10.4847 34.4071 10.2498C33.6189 10.7051 32.8101 11.1024 31.981 11.4475Z" fill="#3BA3FF"/>
  <path fill-rule="evenodd" clip-rule="evenodd" d="M46.5337 5.12259L38.4961 25.672H42.0726L43.9644 20.8H52.7115L54.6034 25.672H58.1798L50.1423 5.12259H46.5337ZM45.2315 17.5665L48.335 9.55379L51.4386 17.5665H45.2315Z" fill="white"/>
  <path fill-rule="evenodd" clip-rule="evenodd" d="M68.3806 18.3031L62.8831 5.12259H59.0117L68.2609 26.3738L77.5101 5.12259H73.8169L68.3806 18.3031Z" fill="white"/>
  <path fill-rule="evenodd" clip-rule="evenodd" d="M96.5074 11.52C96.5074 7.76159 93.7601 5.11969 89.6522 5.11969H82.8555V25.6691H86.4027V17.9203H88.0289L92.9338 25.6691H97.0709L91.9003 17.6854C94.852 16.9517 96.5074 14.6027 96.5074 11.52ZM86.3998 14.5737V8.46629H89.2084C91.4828 8.46629 92.9017 9.49289 92.9017 11.52C92.9017 13.5442 91.4828 14.5737 89.2084 14.5737H86.3998Z" fill="white"/>
  <path d="M107.141 5.12259H103.594V25.672H107.141V5.12259Z" fill="white"/>
  <path fill-rule="evenodd" clip-rule="evenodd" d="M124.301 4.7688C118.272 4.7688 113.84 9.3189 113.84 15.3944C113.84 21.4699 118.272 26.02 124.301 26.02C130.33 26.02 134.761 21.4699 134.761 15.3944C134.761 9.3189 130.33 4.7688 124.301 4.7688ZM124.301 22.6763C120.134 22.6763 117.443 19.3587 117.443 15.3973C117.443 11.433 120.132 8.1183 124.301 8.1183C128.467 8.1183 131.156 11.4359 131.156 15.3973C131.159 19.3587 128.467 22.6763 124.301 22.6763Z" fill="white"/>
  <path fill-rule="evenodd" clip-rule="evenodd" d="M149.203 13.985C146.365 12.9294 144.742 12.3697 144.742 10.5804C144.742 9.2 146.132 8.1154 147.904 8.1154C150.476 8.1154 152.19 10.4354 152.19 10.4354L154.642 8.0284C154.642 8.0284 152.219 4.7688 147.904 4.7688C143.738 4.7688 141.136 7.6746 141.136 10.5804C141.136 14.3968 144.564 16.0411 147.609 17.0967C150.062 17.9493 151.393 18.5641 151.393 20.2954C151.393 21.9687 149.559 22.6734 147.787 22.6734C144.655 22.6734 142.882 19.5907 142.882 19.5907L140.223 21.8208C140.223 21.8208 142.617 26.02 147.787 26.02C151.688 26.02 154.999 24.0248 154.999 20.2954C154.999 16.5689 152.368 15.1595 149.203 13.985Z" fill="white"/>
  </g>
  </g>
  <defs>
  <clipPath id="clip0_1_360">
  <rect width="155" height="29" fill="white" transform="translate(0 0.5)"/>
  </clipPath>
  </defs>
</svg>
