<svg width="726px" height="147px" viewBox="0 0 726 147" version="1.1" xmlns="http://www.w3.org/2000/svg" xmlns:xlink="http://www.w3.org/1999/xlink">
    <title>Logos/frient/frient_logo_claim@1x</title>
    <defs>
        <path d="M58.8894523,147 L147.223631,147 L147.223631,117.6 L58.8894523,117.6 L58.8894523,147 Z M29.4447262,88.2 L147.223631,88.2 L147.223631,58.8 L29.4447262,58.8 L29.4447262,29.4 L147.223631,29.4 L147.223631,0 L29.4447262,0 L4.18434726e-14,0 L4.18434726e-14,29.4 L4.18434726e-14,58.8 L4.18434726e-14,88.2 L4.18434726e-14,147 L29.4447262,147 L29.4447262,88.2 Z M710.000682,147 L725.326662,147 L725.326662,131.4768 L711.885145,131.4768 C706.275924,131.4768 702.536444,130.2567 700.651981,127.8018 C698.767519,125.3616 697.810565,121.6131 697.810565,116.5857 L697.810565,55.3455 L722.809138,55.3455 L722.809138,39.8223 L697.810565,39.8223 L697.810565,12.1422 L680.379288,12.1422 L680.379288,39.8223 L660.003537,39.8223 L660.003537,55.3455 L680.379288,55.3455 L680.379288,117.6294 C680.379288,128.9484 683.044035,136.6806 688.358808,140.8113 C693.688304,144.942 700.887539,147 710.000682,147 L710.000682,147 Z M607.709703,38.9844 C591.750662,38.9844 580.193607,45.7611 573.053261,59.3292 L573.053261,39.8223 L555.828096,39.8223 L555.828096,147 L573.259374,147 L573.259374,92.6835 C573.259374,80.9382 576.10079,71.6772 581.7689,64.9005 C587.437009,58.1238 595.033749,54.7281 604.559118,54.7281 C612.126412,54.7281 617.868134,56.8302 621.784282,61.0197 C625.700431,65.2092 627.673228,70.4571 627.673228,76.7487 L627.673228,147 L645.104506,147 L645.104506,75.0582 C645.104506,63.7392 641.674195,54.8898 634.813574,48.5247 C627.93823,42.1743 618.913422,38.9844 607.709703,38.9844 L607.709703,38.9844 Z M447.442059,147 L538.396818,147 L538.396818,130.8447 L465.506398,130.8447 L465.506398,80.9382 L529.578122,80.9382 L529.578122,64.5771 L465.506398,64.5771 L465.506398,16.3317 L534.407058,16.3317 L534.407058,0.1911 L447.442059,0.1911 L447.442059,147 Z M397.238801,147 L414.670079,147 L414.670079,39.8223 L397.238801,39.8223 L397.238801,147 Z M395.766564,20.7417 L416.142315,20.7417 L416.142315,0.1911 L395.766564,0.1911 L395.766564,20.7417 Z M365.099882,56.3892 L378.335287,56.3892 L378.335287,39.8223 L364.893769,39.8223 C357.193973,39.8223 350.892802,41.4246 345.990255,44.6439 C341.087708,47.8632 337.230449,52.7583 334.4332,59.3292 L334.4332,39.8223 L317.208035,39.8223 L317.208035,147 L334.639313,147 L334.639313,91.8456 C334.639313,79.968 337.127392,71.0745 342.103551,65.2092 C347.064987,59.3292 354.735338,56.3892 365.099882,56.3892 L365.099882,56.3892 Z M234.247519,147 L234.247519,80.9382 L297.686182,80.9382 L297.686182,64.5771 L234.247519,64.5771 L234.247519,16.3317 L302.72123,16.3317 L302.72123,0.1911 L216.18318,0.1911 L216.18318,147 L234.247519,147 Z" id="path-1"></path>
    </defs>
    <g id="Newsletter" stroke="none" stroke-width="1" fill="none" fill-rule="evenodd">
        <g id="Logos/frient/frient_logo_claim">
            <mask id="mask-2" fill="white">
                <use xlink:href="#path-1"></use>
            </mask>
            <use id="Fill-1" fill="#000000" xlink:href="#path-1"></use>
            <g id="Group" mask="url(#mask-2)" fill="#141D50">
                <g id="Atoms/Colors/primary_blue_100">
                    <rect id="Rectangle" x="0" y="0" width="725.8125" height="151.41"></rect>
                </g>
            </g>
        </g>
    </g>
</svg>