<svg width="726px" height="147px" viewBox="0 0 472 262" version="1.1" xmlns="http://www.w3.org/2000/svg" xmlns:xlink="http://www.w3.org/1999/xlink">
    <defs>
        <polygon id="path-1" points="0.249122609 0.61838087 232.058731 0.61838087 232.058731 64.3043478 0.249122609 64.3043478"></polygon>
    </defs>
    <g id="Logos/frient/pbf_logo" stroke="none" stroke-width="1" fill="none" fill-rule="evenodd">
        <g id="Group-12">
            <g id="Group-10" transform="translate(174.000000, 0.267809)">
                <g id="Group-3" transform="translate(0.000000, 195.939130)">
                    <mask id="mask-2" fill="white">
                        <use xlink:href="#path-1"></use>
                    </mask>
                    <g id="Clip-2"></g>
                    <path d="M7.95202696,63.3196591 L7.95202696,35.1036678 L35.0029748,35.1036678 L35.0029748,28.1179461 L7.95202696,28.1179461 L7.95202696,7.51558957 L37.152253,7.51558957 L37.152253,0.61838087 L0.249122609,0.61838087 L0.249122609,63.3196591 L7.95202696,63.3196591 Z M61.2467139,17.189233 C48.5273139,17.189233 39.480827,26.23572 39.480827,40.74732 C39.480827,55.347433 48.5273139,64.3046504 61.2467139,64.3046504 C74.0553835,64.3046504 83.102627,55.347433 83.102627,40.74732 C83.102627,26.23572 74.0553835,17.189233 61.2467139,17.189233 L61.2467139,17.189233 Z M75.4889922,40.74732 C75.4889922,51.0473635 69.9353661,57.4974678 61.4260096,57.4974678 C53.2752443,57.4974678 47.0944617,51.67452 47.0944617,40.74732 C47.0944617,30.44652 52.6480878,23.9964157 61.1574443,23.9964157 C69.3082096,23.9964157 75.4889922,29.8193635 75.4889922,40.74732 L75.4889922,40.74732 Z M116.153549,24.6243287 L116.153549,17.5485809 L110.421383,17.5485809 C103.70347,17.5485809 99.7619922,20.3250157 97.4334183,25.8786417 L97.4334183,17.5485809 L90.0883487,17.5485809 L90.0883487,63.3196591 L97.5226878,63.3196591 L97.5226878,39.7615722 C97.5226878,29.6400678 101.642705,24.6243287 110.510653,24.6243287 L116.153549,24.6243287 Z M159.774592,63.3196591 L159.774592,17.5485809 L152.340253,17.5485809 L152.340253,40.9258591 C152.340253,52.0338678 146.249497,57.2281461 139.889418,57.2281461 C134.246523,57.2281461 129.94721,53.5559896 129.94721,46.3009461 L129.94721,17.5485809 L122.51287,17.5485809 L122.51287,47.5552591 C122.51287,58.1246243 129.499349,63.8567896 138.27727,63.8567896 C144.278757,63.8567896 149.384523,61.34892 152.519549,55.347433 L152.519549,63.3196591 L159.774592,63.3196591 Z M216.920731,17.189233 C207.426383,17.189233 203.932766,22.8321287 202.50067,26.773607 C201.245601,21.400033 196.230618,17.189233 189.153357,17.189233 C183.779783,17.189233 179.121879,19.5185635 176.613253,25.3407548 L176.613253,17.5485809 L169.35821,17.5485809 L169.35821,63.3196591 L176.792549,63.3196591 L176.792549,38.7765809 C176.792549,29.1929635 181.271157,23.9964157 187.98907,23.9964157 C193.184105,23.9964157 197.036314,27.0429287 197.036314,33.8501113 L197.036314,63.3196591 L204.380627,63.3196591 L204.380627,38.866607 C204.380627,29.282233 208.681453,23.9964157 215.577149,23.9964157 C220.77294,23.9964157 224.624392,26.9536591 224.624392,33.8501113 L224.624392,63.3196591 L232.058731,63.3196591 L232.058731,31.4322678 C232.058731,21.8478939 225.520114,17.189233 216.920731,17.189233 L216.920731,17.189233 Z" id="Fill-1" fill="#FFFFFF" mask="url(#mask-2)"></path>
                </g>
                <path d="M34.1070261,148.599026 C40.3770783,145.822591 43.5121043,139.641809 43.5121043,133.998913 C43.5121043,126.653843 38.1377739,119.846661 26.5826609,119.846661 L0.248895652,119.846661 L0.248895652,182.547183 L25.3291043,182.547183 C39.1227652,182.547183 46.2885391,173.411426 46.2885391,164.453452 C46.2885391,157.735539 42.3478174,151.376217 34.1070261,148.599026 L34.1070261,148.599026 Z M23.9855217,146.091913 L7.86253043,146.091913 L7.86253043,126.743113 L25.4183739,126.743113 C32.6741739,126.743113 35.8092,131.132452 35.8092,135.790357 C35.8092,140.806096 32.0470174,146.091913 23.9855217,146.091913 L23.9855217,146.091913 Z M25.5976696,175.65073 L7.86253043,175.65073 L7.86253043,152.80907 L26.2248261,152.80907 C34.3755913,152.80907 38.4063391,158.362696 38.4063391,164.274913 C38.4063391,170.007835 34.6441565,175.65073 25.5976696,175.65073 L25.5976696,175.65073 Z M90.9838435,182.547183 L90.9838435,136.775348 L83.5495043,136.775348 L83.5495043,160.154139 C83.5495043,171.260635 77.4587478,176.45567 71.0994261,176.45567 C65.4557739,176.45567 61.1564609,172.78427 61.1564609,165.52847 L61.1564609,136.775348 L53.7221217,136.775348 L53.7221217,166.782026 C53.7221217,177.352148 60.7086,183.084313 69.4865217,183.084313 C75.4880087,183.084313 80.5937739,180.5772 83.7288,174.574957 L83.7288,182.547183 L90.9838435,182.547183 Z M101.642478,128.625339 L110.33113,128.625339 L110.33113,119.846661 L101.642478,119.846661 L101.642478,128.625339 Z M102.269635,182.546426 L109.703974,182.546426 L109.703974,136.775348 L102.269635,136.775348 L102.269635,182.546426 Z M120.989765,182.547183 L128.424104,182.547183 L128.424104,119.846661 L120.989765,119.846661 L120.989765,182.547183 Z M179.031626,182.547183 L179.031626,119.846661 L171.597287,119.846661 L171.597287,144.657548 C169.178687,140.001157 164.610809,136.417513 156.907148,136.417513 C143.382052,136.417513 136.305548,148.240435 136.305548,159.974843 C136.305548,171.798522 143.292026,183.53293 156.817878,183.53293 C165.327235,183.53293 169.715817,179.142835 171.865852,173.679235 L171.865852,182.547183 L179.031626,182.547183 Z M157.7136,176.635722 C148.487817,176.635722 144.367043,168.663496 144.367043,159.884817 C144.367043,151.197678 148.487817,143.0454 157.80287,143.0454 C167.476513,143.0454 171.417991,150.9276 171.417991,159.616252 C171.417991,168.394174 167.476513,176.635722 157.7136,176.635722 L157.7136,176.635722 Z M189.691017,128.625339 L198.37967,128.625339 L198.37967,119.846661 L189.691017,119.846661 L189.691017,128.625339 Z M190.317417,182.546426 L197.751757,182.546426 L197.751757,136.775348 L190.317417,136.775348 L190.317417,182.546426 Z M231.16127,136.417513 C223.547635,136.417513 218.979757,140.178939 216.381861,145.106165 L216.381861,136.775348 L209.036791,136.775348 L209.036791,182.547183 L216.472643,182.547183 L216.472643,159.347687 C216.472643,149.315452 221.756191,143.135426 229.817687,143.135426 C236.714896,143.135426 239.670626,147.614035 239.670626,152.540504 L239.670626,182.547183 L247.104965,182.547183 L247.104965,151.824078 C247.104965,141.970383 240.477078,136.417513 231.16127,136.417513 L231.16127,136.417513 Z M297.533948,179.769991 L297.533948,136.775348 L290.368174,136.775348 L290.368174,144.299713 C287.053852,138.566791 280.963096,136.417513 275.051635,136.417513 C264.034409,136.417513 254.987165,144.120417 254.987165,158.721287 C254.987165,173.3214 264.123678,180.66647 275.3202,180.66647 C281.142391,180.66647 287.233148,178.694974 290.368174,172.514948 L290.368174,180.129339 C290.368174,190.608678 284.815304,194.192322 276.753052,194.192322 C268.065157,194.192322 263.944383,189.981522 263.227957,184.786487 L255.793617,184.786487 C257.405765,196.520896 267.258704,200.730183 276.663783,200.730183 C288.487461,200.730183 297.533948,194.101539 297.533948,179.769991 L297.533948,179.769991 Z M276.305191,174.127096 C268.602287,174.127096 262.243722,168.842791 262.243722,158.541991 C262.243722,148.240435 268.513017,142.866861 276.305191,142.866861 C283.470965,142.866861 289.831043,147.614035 289.831043,158.541991 C289.831043,169.469191 283.470965,174.127096 276.305191,174.127096 L276.305191,174.127096 Z" id="Fill-4" fill="#FFFFFF"></path>
                <path d="M24.9708157,43.1351296 L0.249198261,43.1351296 L0.249198261,105.835651 L7.77280696,105.835651 L7.77280696,79.8597209 L23.9858243,79.8597209 C37.6001896,79.8597209 44.228833,70.0075383 44.228833,60.7809991 C44.228833,51.5552165 37.6001896,43.1351296 24.9708157,43.1351296 M23.9858243,72.9625122 L7.77280696,72.9625122 L7.77280696,50.0323383 L24.2543896,50.0323383 C32.2258591,50.0323383 36.346633,55.4959383 36.346633,61.3181296 C36.346633,67.0510513 32.3158852,72.9625122 23.9858243,72.9625122 M52.737433,85.0547557 L86.4170243,85.0547557 L86.4170243,81.5618948 C86.4170243,66.69246 77.459807,59.7059817 66.62112,59.7059817 C55.7831896,59.7059817 45.4823896,66.8717557 45.4823896,83.1740426 C45.4823896,99.3863035 55.6931635,106.820643 66.5318504,106.820643 C75.1304765,106.820643 83.7298591,102.342034 86.058433,92.6683904 L78.7133635,92.6683904 C77.1904852,97.5055904 72.5333374,100.192756 66.8896852,100.192756 C59.0975113,100.192756 53.0059983,95.2662861 52.737433,85.0547557 M66.4418243,66.1553296 C73.7868939,66.1553296 78.9819287,71.1710687 78.9819287,79.0540252 L52.9167287,79.0540252 C53.90172,69.7382165 59.903207,66.1553296 66.4418243,66.1553296 M112.750033,59.7059817 C102.717798,59.7059817 94.567033,64.811747 93.2234504,74.2168252 L100.747816,74.2168252 C101.912103,69.2903557 105.49499,66.2445991 112.570737,66.2445991 C118.66225,66.2445991 122.245137,68.5739296 122.245137,72.9625122 C122.245137,77.3518513 118.75152,78.0682774 115.975085,78.5161383 L105.763555,80.2183122 C102.001372,80.8447122 91.7905983,82.6361557 91.7905983,93.3848165 C91.7905983,102.073469 98.3292157,106.820643 106.211416,106.820643 C111.227155,106.820643 118.75152,104.85066 122.245137,98.132747 L122.245137,105.835651 L129.500181,105.835651 L129.500181,74.2168252 C129.500181,64.1845904 123.050833,59.7059817 112.750033,59.7059817 M122.155111,82.3675904 L122.155111,86.3990948 C122.155111,95.6241209 114.900068,100.192756 107.734294,100.192756 C102.98712,100.192756 99.314207,98.132747 99.314207,93.295547 C99.314207,87.1147643 105.226424,85.7711817 108.809311,85.1447817 L115.616494,83.9797383 C118.124363,83.5318774 119.28865,83.2633122 122.155111,82.3675904 M176.524816,89.6233904 L169.179746,89.6233904 C168.911181,96.0719817 163.53685,100.10273 157.176772,100.10273 C150.28032,100.10273 143.383111,95.3555557 143.383111,83.0840165 C143.383111,71.4396339 149.563137,66.1553296 157.176772,66.1553296 C163.984711,66.1553296 169.00045,70.365373 169.359042,76.2768339 L176.614085,76.2768339 C176.34552,65.4389035 167.836163,59.7059817 157.446094,59.7059817 C144.90599,59.7059817 135.858746,68.1260687 135.858746,83.5318774 C135.858746,99.3863035 145.44312,106.820643 156.998233,106.820643 C166.851172,106.820643 175.80839,100.909182 176.524816,89.6233904 M189.78059,85.0547557 L223.460181,85.0547557 L223.460181,81.5618948 C223.460181,66.69246 214.502963,59.7059817 203.664277,59.7059817 C192.826346,59.7059817 182.525546,66.8717557 182.525546,83.1740426 C182.525546,99.3863035 192.73632,106.820643 203.575007,106.820643 C212.173633,106.820643 220.773016,102.342034 223.10159,92.6683904 L215.75652,92.6683904 C214.233642,97.5055904 209.576494,100.192756 203.932842,100.192756 C196.140668,100.192756 190.049155,95.2662861 189.78059,85.0547557 M203.484981,66.1553296 C210.83005,66.1553296 216.024329,71.1710687 216.024329,79.0540252 L189.959885,79.0540252 C190.944877,69.7382165 196.946363,66.1553296 203.484981,66.1553296" id="Fill-6" fill="#FFFFFF"></path>
                <path d="M4.13287826,32.1508122 L4.13287826,17.9032383 L17.7926348,17.9032383 L17.7926348,14.3748209 L4.13287826,14.3748209 L4.13287826,3.97189043 L18.8782435,3.97189043 L18.8782435,0.488864348 L0.242843478,0.488864348 L0.242843478,32.1508122 L4.13287826,32.1508122 Z M35.1608609,12.6113687 L35.1608609,9.03756 L32.2664087,9.03756 C28.8741652,9.03756 26.8837565,10.4401513 25.7073652,13.2445774 L25.7073652,9.03756 L21.9988957,9.03756 L21.9988957,32.1508122 L25.7527565,32.1508122 L25.7527565,20.2552643 C25.7527565,15.1442035 27.8331913,12.6113687 32.3110435,12.6113687 L35.1608609,12.6113687 Z M38.9147217,4.92208174 L43.3017913,4.92208174 L43.3017913,0.48962087 L38.9147217,0.48962087 L38.9147217,4.92208174 Z M39.2317043,32.1508122 L42.9855652,32.1508122 L42.9855652,9.03756 L39.2317043,9.03756 L39.2317043,32.1508122 Z M50.040887,32.1508122 L69.6264783,32.1508122 L69.6264783,28.6677861 L53.9309217,28.6677861 L53.9309217,17.9032383 L67.7268522,17.9032383 L67.7268522,14.3748209 L53.9309217,14.3748209 L53.9309217,3.97189043 L68.7670696,3.97189043 L68.7670696,0.488864348 L50.040887,0.488864348 L50.040887,32.1508122 Z M84.5518957,8.8567513 C80.7072522,8.8567513 78.4006174,10.7563774 77.0888087,13.2445774 L77.0888087,9.03756 L73.3795826,9.03756 L73.3795826,32.1508122 L77.1342,32.1508122 L77.1342,20.436073 C77.1342,15.3704035 79.8024522,12.2489948 83.8732957,12.2489948 C87.3563217,12.2489948 88.8489391,14.5109948 88.8489391,16.9984383 L88.8489391,32.1508122 L92.6028,32.1508122 L92.6028,16.6368209 C92.6028,11.6611774 89.2559478,8.8567513 84.5518957,8.8567513 L84.5518957,8.8567513 Z M109.881,32.1508122 L109.881,28.80396 L106.986548,28.80396 C104.36293,28.80396 103.955922,27.4921513 103.955922,25.5925252 L103.955922,12.3851687 L109.338574,12.3851687 L109.338574,9.03756 L103.955922,9.03756 L103.955922,3.06709043 L100.201304,3.06709043 L100.201304,9.03756 L95.8142348,9.03756 L95.8142348,12.3851687 L100.201304,12.3851687 L100.201304,25.8187252 C100.201304,31.1559861 103.277322,32.1508122 106.578783,32.1508122 L109.881,32.1508122 Z" id="Fill-8" fill="#FFFFFF"></path>
            </g>
            <path d="M62.7257896,43.4153452 L13.9384591,43.4153452 L0.000302608696,43.4153452 L0.000302608696,120.079745 L13.9384591,120.079745 L62.7257896,120.079745 L62.7257896,168.867832 L62.7257896,182.805989 L76.6654591,182.805989 L125.451277,182.805989 L139.39019,182.805989 L139.39019,168.867832 L139.39019,120.079745 L139.39019,106.140076 L125.451277,106.140076 L76.6654591,106.140076 L76.6654591,57.3542583 L76.6654591,43.4153452 L62.7257896,43.4153452 Z M13.9384591,106.140832 L62.7257896,106.140832 L62.7257896,57.3542583 L13.9384591,57.3542583 L13.9384591,106.140832 Z M76.6654591,168.867832 L125.452033,168.867832 L125.452033,120.080502 L76.6654591,120.080502 L76.6654591,168.867832 Z" id="Fill-11" fill="#FFFFFF"></path>
        </g>
    </g>
</svg>