<svg width="220" height="25" viewBox="0 0 220 25" fill="none" xmlns="http://www.w3.org/2000/svg">
  <g clip-path="url(#clip0_607_2138)">
  <path d="M6.07182 13.2044L11.1561 3.5358H21.2087L19.3738 0H6.45588L0 12.4363L0.396254 13.2044H6.07182Z" fill="#CE0E2D"/>
  <path d="M10.0163 18.9832L15.1005 9.32068H24.2144L21.6235 4.33398H11.6379L6.55366 14.0026H0.811035L3.40192 18.9832H10.0163Z" fill="#CE0E2D"/>
  <path d="M11.7108 22.4218L17.24 12.3081H25.7625L25.0371 10.9121H16.0634L10.9792 20.5807H4.22461L5.18171 22.4218H11.7108Z" fill="#76777A"/>
  <path d="M17.7094 13.1064L12.1801 23.2201H5.59619L6.45576 24.8782H19.3736L25.482 13.1064H17.7094Z" fill="#76777A"/>
  <path d="M48.9707 3.81055C50.5557 3.81055 51.903 4.31653 53.0003 5.3346C54.1098 6.35267 54.6645 7.578 54.6645 9.02281V9.09596H50.0802C50.1046 9.04719 50.1107 9.02281 50.0924 9.02281C50.0924 8.64484 49.9522 8.32784 49.6656 8.07789C49.3974 7.80356 49.0499 7.67554 48.6232 7.69993H38.8144C38.412 7.67554 38.0646 7.80356 37.7841 8.09009C37.5098 8.34003 37.3696 8.65094 37.3696 9.02281C37.3757 9.39467 37.522 9.70558 37.7963 9.96772C38.0707 10.2299 38.412 10.3579 38.8144 10.3579C39.9727 10.3579 41.7589 10.3579 44.1791 10.3457C46.5992 10.3213 48.3793 10.3213 49.5315 10.3457C51.1714 10.3396 52.5552 10.8639 53.6891 11.9185C54.8535 12.961 55.4266 14.2229 55.4022 15.7103C55.4083 17.1978 54.8352 18.4597 53.677 19.5022C52.5492 20.5446 51.1714 21.0628 49.5315 21.0628H38.1133C36.5039 21.0628 35.114 20.5446 33.9557 19.5022C32.8157 18.4597 32.2427 17.1978 32.2427 15.7103H36.6502V15.7347C36.6502 16.1554 36.8148 16.515 37.144 16.8199C37.4732 17.1247 37.8634 17.271 38.3145 17.271H49.0926C49.562 17.2466 49.9583 17.1003 50.2753 16.8321C50.5923 16.5272 50.7569 16.1737 50.7569 15.7652C50.7569 15.3568 50.5923 14.9788 50.2631 14.6801C49.9339 14.3753 49.5437 14.229 49.0926 14.229H37.9731C36.3942 14.2229 35.053 13.7108 33.9435 12.7049C32.834 11.6808 32.2793 10.4554 32.2793 9.0289C32.2793 7.60239 32.834 6.37095 33.9435 5.38947C35.0408 4.38969 36.3881 3.86541 37.9731 3.81664H48.9768L48.9707 3.81055Z" fill="#CE0E2D"/>
  <path d="M79.0006 3.81055V7.65116H62.4067V10.4737H76.7877V14.2534H62.4067V17.2222H79.0006V21.0628H57.6943V3.81055H79.0006Z" fill="#CE0E2D"/>
  <path d="M99.9166 3.81055C101.459 3.81055 102.77 4.30434 103.843 5.28583C104.928 6.26732 105.464 7.45608 105.452 8.85211V9.96162H100.746V9.6751C100.746 9.09596 100.532 8.61436 100.106 8.24249C99.685 7.83404 99.1607 7.63897 98.5328 7.66335H88.1936C87.5901 7.65725 87.0658 7.85233 86.6208 8.25468C86.194 8.62655 85.9807 9.09596 85.9807 9.6751V15.2166C85.9807 15.7713 86.2001 16.2468 86.633 16.6492C87.0719 17.0271 87.5901 17.2222 88.1936 17.2283H98.5328C99.1607 17.2039 99.685 17.0088 100.106 16.637C100.532 16.2346 100.746 15.7591 100.746 15.2166V14.9544H105.452V16.0395C105.458 17.4356 104.922 18.6182 103.843 19.5997C102.77 20.5812 101.459 21.075 99.9166 21.075H86.8098C85.2735 21.075 83.9628 20.5812 82.8838 19.5997C81.8109 18.6182 81.2744 17.4295 81.2744 16.0395V8.85211C81.2744 7.45608 81.817 6.27342 82.896 5.28583C83.9811 4.30434 85.2857 3.81055 86.8098 3.81055H99.9166Z" fill="#CE0E2D"/>
  <path d="M126.758 3.81055C128.301 3.81055 129.611 4.30434 130.684 5.28583C131.77 6.26732 132.306 7.45608 132.294 8.85211V16.0274C132.3 17.4234 131.763 18.606 130.684 19.5875C129.611 20.569 128.301 21.0628 126.758 21.0628H113.274C111.737 21.0628 110.427 20.569 109.348 19.5875C108.275 18.606 107.738 17.4173 107.738 16.0274V8.85211C107.738 7.45608 108.275 6.27342 109.348 5.28583C110.433 4.30434 111.737 3.81055 113.274 3.81055H126.758ZM113.085 8.24249C112.658 8.61436 112.445 9.08377 112.445 9.66291V15.2044C112.445 15.7591 112.658 16.2346 113.085 16.637C113.511 17.0149 114.036 17.21 114.657 17.2161H125.375C126.003 17.1917 126.527 16.9966 126.947 16.6248C127.374 16.2224 127.588 15.7469 127.588 15.2044V9.669C127.588 9.08986 127.374 8.60826 126.947 8.23639C126.527 7.82795 126.003 7.63287 125.375 7.65726H114.657C114.036 7.65116 113.511 7.84624 113.085 8.24859V8.24249Z" fill="#CE0E2D"/>
  <path d="M144.285 21.0628L133.824 3.81055H139.274L147.028 16.7772L154.758 3.81055H160.208L149.747 21.0628H144.285Z" fill="#CE0E2D"/>
  <path d="M166.432 3.81055V21.0628H161.726V3.81055H166.432Z" fill="#CE0E2D"/>
  <path d="M185.435 3.81055C187.02 3.81055 188.367 4.31653 189.464 5.3346C190.574 6.35267 191.128 7.578 191.128 9.02281V9.09596H186.544C186.568 9.04719 186.575 9.02281 186.556 9.02281C186.556 8.64484 186.416 8.32784 186.13 8.07789C185.861 7.80356 185.514 7.67554 185.087 7.69993H175.278C174.876 7.67554 174.528 7.80356 174.248 8.09009C173.974 8.34003 173.833 8.65094 173.833 9.02281C173.84 9.39467 173.986 9.70558 174.26 9.96772C174.535 10.2299 174.876 10.3579 175.278 10.3579C176.437 10.3579 178.223 10.3579 180.643 10.3457C183.063 10.3213 184.843 10.3213 185.995 10.3457C187.635 10.3396 189.019 10.8639 190.153 11.9185C191.317 12.961 191.89 14.2229 191.866 15.7103C191.872 17.1978 191.299 18.4597 190.141 19.5022C189.013 20.5446 187.635 21.0628 185.995 21.0628H174.577C172.968 21.0628 171.578 20.5446 170.42 19.5022C169.28 18.4597 168.707 17.1978 168.707 15.7103H173.114V15.7347C173.114 16.1554 173.279 16.515 173.608 16.8199C173.937 17.1247 174.327 17.271 174.778 17.271H185.556C186.026 17.2466 186.422 17.1003 186.739 16.8321C187.056 16.5272 187.221 16.1737 187.221 15.7652C187.221 15.3568 187.056 14.9788 186.727 14.6801C186.398 14.3753 186.008 14.229 185.556 14.229H174.437C172.858 14.2229 171.517 13.7108 170.407 12.7049C169.298 11.6808 168.743 10.4554 168.743 9.0289C168.743 7.60239 169.298 6.37095 170.407 5.38947C171.505 4.38969 172.852 3.86541 174.437 3.81664H185.441L185.435 3.81055Z" fill="#CE0E2D"/>
  <path d="M209.045 3.81055L220 21.0628H214.928L212.55 17.2832H200.876L198.468 21.0628H193.408L204.363 3.81055H209.045ZM203.193 13.6315H210.222L206.722 8.09009L203.199 13.6315H203.193Z" fill="#CE0E2D"/>
  </g>
  <defs>
  <clipPath id="clip0_607_2138">
  <rect width="220" height="24.8786" fill="white"/>
  </clipPath>
  </defs>
</svg>
