<svg width="501px" height="117px" viewBox="0 0 501 117" version="1.1" xmlns="http://www.w3.org/2000/svg" xmlns:xlink="http://www.w3.org/1999/xlink">
  <title>Group</title>
  <g id="Page-1" stroke="none" stroke-width="1" fill="none" fill-rule="evenodd">
    <g id="Group" fill-rule="nonzero">
      <g id="claim" transform="translate(160.000000, 91.000000)" fill="#00999A">
        <path d="M0.6,2.3 L7.1,2.3 C8.7,2.3 10.1,2.6 11.3,3.2 C12.5,3.8 13.6,4.6 14.4,5.6 C15.3,6.6 15.9,7.8 16.3,9.2 C16.7,10.6 17,12.1 17,13.7 C17,15.3 16.8,16.8 16.4,18.2 C16,19.6 15.3,20.8 14.5,21.8 C13.7,22.8 12.6,23.6 11.3,24.2 C10,24.8 8.5,25.1 6.8,25.1 L0.6,25.1 L0.6,2.3 L0.6,2.3 Z M3.3,22.8 L6.3,22.8 C7.2,22.8 8.2,22.7 9.1,22.5 C10,22.3 10.9,21.8 11.6,21.2 C12.4,20.6 13,19.6 13.4,18.4 C13.9,17.2 14.1,15.7 14.1,13.8 C14.1,12.4 13.9,11.2 13.6,10.1 C13.3,9 12.8,8 12.2,7.2 C11.6,6.4 10.8,5.8 9.8,5.4 C8.8,5 7.6,4.8 6.2,4.8 L3.2,4.8 L3.3,22.8 L3.3,22.8 Z" id="Shape"></path>
        <path d="M20.5,10.5 C20.7,9.9 20.9,9.4 21.2,8.8 C21.5,8.2 21.9,7.7 22.4,7.3 C22.9,6.8 23.5,6.5 24.2,6.2 C24.9,5.9 25.8,5.8 26.9,5.8 C28.2,5.8 29.3,6 30,6.4 C30.8,6.8 31.4,7.4 31.8,8.1 C32.2,8.8 32.5,9.6 32.6,10.4 C32.7,11.2 32.8,12.1 32.8,12.9 L32.8,22.9 C32.8,23.1 32.8,23.4 32.8,23.8 C32.8,24.2 32.9,24.6 32.9,25.1 L30.1,25.1 L30.1,21.9 L30,21.9 C29.1,23.1 28.3,24 27.4,24.5 C26.5,25 25.5,25.3 24.5,25.3 C23.6,25.3 22.8,25.1 22.2,24.8 C21.6,24.5 21.1,24 20.7,23.5 C20.3,23 20,22.4 19.9,21.8 C19.7,21.2 19.6,20.5 19.6,19.9 C19.6,18.8 19.8,17.9 20.2,17 C20.6,16.2 21.1,15.5 21.8,15 C22.5,14.5 23.3,14.1 24.3,13.8 C25.3,13.5 26.4,13.4 27.6,13.4 L30.2,13.4 L30.2,12.2 C30.2,11.9 30.2,11.5 30.1,11 C30.1,10.5 29.9,10 29.7,9.6 C29.5,9.1 29.2,8.7 28.7,8.4 C28.2,8.1 27.6,7.9 26.7,7.9 C25.6,7.9 24.8,8.2 24.2,8.8 C23.6,9.4 23.1,10.2 22.7,11.3 L20.5,10.5 Z M28.3,15.6 C26.4,15.6 24.9,15.9 23.9,16.6 C22.8,17.3 22.3,18.3 22.3,19.7 C22.3,20.1 22.4,20.5 22.5,21 C22.6,21.4 22.8,21.8 23,22.1 C23.2,22.4 23.6,22.7 23.9,22.9 C24.3,23.1 24.7,23.2 25.3,23.2 C25.6,23.2 25.9,23.2 26.2,23.1 C26.5,23 26.9,22.9 27.3,22.7 C27.7,22.5 28.1,22.2 28.6,21.7 C29.1,21.3 29.6,20.7 30.2,19.9 L30.2,15.6 L28.3,15.6 L28.3,15.6 Z" id="Shape"></path>
        <path d="M38,19.9 C38.3,20.9 38.8,21.7 39.4,22.3 C40,22.9 40.9,23.2 42,23.2 C42.7,23.2 43.3,23.1 43.8,22.9 C44.3,22.7 44.6,22.4 44.9,22.1 C45.2,21.8 45.4,21.4 45.5,21.1 C45.6,20.7 45.7,20.4 45.7,20.1 C45.7,19.1 45.4,18.4 44.7,18 C44.1,17.5 43.2,17.1 42.1,16.8 L40.8,16.4 C40.2,16.2 39.6,16 39.1,15.7 C38.5,15.4 38.1,15.1 37.7,14.7 C37.3,14.3 37,13.8 36.7,13.2 C36.4,12.6 36.3,12 36.3,11.2 C36.3,10.2 36.5,9.4 36.9,8.8 C37.3,8.1 37.8,7.6 38.3,7.2 C38.9,6.8 39.5,6.5 40.2,6.3 C40.9,6.1 41.6,6 42.2,6 C43.2,6 44,6.1 44.7,6.4 C45.4,6.7 45.9,7.1 46.3,7.5 C46.7,8 47,8.4 47.3,8.9 C47.5,9.4 47.7,9.8 47.9,10.2 L45.6,11.1 C45.4,10.1 44.9,9.4 44.3,8.9 C43.7,8.4 42.9,8.2 42.2,8.2 C41.8,8.2 41.4,8.3 41,8.4 C40.6,8.5 40.3,8.7 40,8.9 C39.7,9.1 39.5,9.4 39.3,9.8 C39.1,10.2 39,10.6 39,11.1 C39,11.8 39.2,12.4 39.6,12.8 C40,13.2 40.6,13.6 41.6,13.9 L44,14.8 C44.7,15.1 45.4,15.4 45.9,15.7 C46.5,16 46.9,16.4 47.3,16.8 C47.7,17.2 47.9,17.7 48.1,18.2 C48.3,18.7 48.4,19.4 48.4,20.1 C48.4,20.6 48.3,21.2 48.1,21.9 C47.9,22.5 47.6,23.1 47.1,23.7 C46.6,24.3 46,24.7 45.1,25.1 C44.3,25.5 43.2,25.7 42,25.7 C41.3,25.7 40.6,25.6 39.9,25.4 C39.2,25.2 38.6,24.9 38.1,24.5 C37.6,24.1 37.1,23.6 36.7,23 C36.3,22.4 36,21.7 35.8,20.9 L38,19.9 Z" id="Path"></path>
        <path d="M60.5,2.3 L64.2,2.3 L72.8,18.2 C72.9,18.4 73,18.7 73.2,18.9 C73.3,19.2 73.5,19.5 73.6,19.8 C73.7,20.1 73.9,20.4 74,20.6 C74.1,20.9 74.2,21.1 74.3,21.3 L74.5,21.3 C74.5,20.9 74.4,20.5 74.4,20 C74.4,19.5 74.4,19 74.4,18.5 L74.4,2.3 L77.2,2.3 L77.2,25.1 L73.5,25.1 L64.7,9 C64.6,8.8 64.4,8.5 64.3,8.3 C64.2,8 64,7.7 63.9,7.5 C63.8,7.2 63.6,6.9 63.5,6.6 C63.4,6.3 63.3,6.1 63.2,5.9 L63,5.9 C63,6.3 63.1,6.7 63.1,7.2 C63.1,7.7 63.1,8.2 63.1,8.7 L63.1,25.1 L60.3,25.1 L60.5,2.3 L60.5,2.3 Z" id="Path"></path>
        <path d="M83.4,16.4 C83.4,17.7 83.6,18.8 83.9,19.6 C84.2,20.5 84.5,21.2 85,21.7 C85.4,22.2 85.9,22.6 86.5,22.9 C87,23.1 87.6,23.2 88.2,23.2 C88.9,23.2 89.5,23.1 90.1,22.8 C90.6,22.6 91,22.3 91.4,21.9 C91.7,21.5 92,21.2 92.2,20.8 C92.4,20.4 92.5,20.1 92.6,19.8 L94.9,20.7 C94.3,22.2 93.5,23.3 92.4,24.2 C91.3,25 90,25.5 88.3,25.5 C86.7,25.5 85.4,25.2 84.5,24.5 C83.5,23.8 82.8,23 82.2,22 C81.7,21 81.3,19.9 81.1,18.8 C80.9,17.6 80.8,16.6 80.8,15.6 C80.8,14.6 80.9,13.6 81.1,12.4 C81.3,11.3 81.7,10.2 82.2,9.2 C82.7,8.2 83.5,7.4 84.5,6.7 C85.5,6 86.7,5.7 88.3,5.7 C89.6,5.7 90.7,6 91.5,6.5 C92.4,7 93.1,7.7 93.6,8.6 C94.1,9.5 94.5,10.4 94.8,11.6 C95,12.7 95.2,13.8 95.2,14.9 L95.2,16.3 L83.4,16.4 L83.4,16.4 Z M92.3,14.3 C92.3,13.4 92.2,12.6 92,11.9 C91.8,11.1 91.5,10.5 91.2,9.9 C90.8,9.3 90.4,8.9 89.9,8.6 C89.4,8.3 88.8,8.1 88.1,8.1 C86.7,8.1 85.6,8.7 84.9,9.8 C84.1,10.9 83.7,12.4 83.5,14.4 L92.3,14.3 L92.3,14.3 Z" id="Shape"></path>
        <path d="M99.7,3 L102.3,1.8 L102.3,6.2 L106.5,6.2 L106.5,8.4 L102.3,8.4 L102.3,20.3 C102.3,20.7 102.3,21.1 102.4,21.4 C102.4,21.8 102.5,22.1 102.7,22.4 C102.8,22.7 103.1,22.9 103.3,23.1 C103.6,23.3 104,23.4 104.4,23.4 C104.8,23.4 105.2,23.4 105.5,23.3 C105.8,23.2 106.2,23.1 106.6,22.9 L106.6,25 C106.1,25.2 105.6,25.4 105.1,25.4 C104.6,25.5 104.3,25.5 104.1,25.5 C103.1,25.5 102.4,25.3 101.8,25 C101.2,24.7 100.8,24.3 100.5,23.8 C100.2,23.3 100,22.8 99.9,22.2 C99.8,21.6 99.7,21.1 99.7,20.5 L99.7,8.4 L97,8.4 L97,6.2 L99.7,6.2 L99.7,3 L99.7,3 Z" id="Path"></path>
        <path d="M168.2,3 L170.8,1.8 L170.8,6.2 L175,6.2 L175,8.4 L170.8,8.4 L170.8,20.3 C170.8,20.7 170.8,21.1 170.9,21.4 C170.9,21.8 171,22.1 171.2,22.4 C171.3,22.7 171.5,22.9 171.8,23.1 C172.1,23.3 172.5,23.4 172.9,23.4 C173.3,23.4 173.7,23.4 174,23.3 C174.3,23.2 174.7,23.1 175.1,22.9 L175.1,25 C174.6,25.2 174.1,25.4 173.6,25.4 C173.1,25.5 172.8,25.5 172.6,25.5 C171.6,25.5 170.9,25.3 170.3,25 C169.7,24.7 169.3,24.3 169,23.8 C168.7,23.3 168.5,22.8 168.4,22.2 C168.3,21.6 168.2,21.1 168.2,20.5 L168.2,8.4 L165.5,8.4 L165.5,6.2 L168.2,6.2 L168.2,3 L168.2,3 Z" id="Path"></path>
        <polygon id="Path" points="120.8 6.2 120.8 8.4 111.1 22.9 121 22.9 121 25.1 108 25.1 108 23 117.8 8.4 108.4 8.4 108.4 6.2"></polygon>
        <path d="M132.6,6.2 L135.2,6.2 L135.2,9.2 C135.8,8.5 136.3,7.9 136.8,7.4 C137.3,7 137.8,6.6 138.2,6.4 C138.7,6.2 139.1,6 139.5,5.9 C139.9,5.8 140.3,5.8 140.7,5.8 C141.4,5.8 142,5.9 142.5,6.1 C143,6.3 143.4,6.6 143.7,6.9 C144,7.2 144.2,7.6 144.4,7.9 C144.6,8.3 144.7,8.6 144.8,8.9 C145.1,8.6 145.5,8.2 145.9,7.8 C146.3,7.4 146.7,7.1 147.2,6.8 C147.7,6.5 148.2,6.3 148.7,6.1 C149.3,5.9 149.9,5.8 150.6,5.8 C151.5,5.8 152.2,6 152.8,6.3 C153.4,6.6 153.8,7.1 154.1,7.6 C154.4,8.1 154.6,8.7 154.8,9.3 C154.9,9.9 155,10.5 155,11.1 L155,25.1 L152.4,25.1 L152.4,12.2 C152.4,11.9 152.4,11.6 152.4,11.1 C152.4,10.7 152.3,10.2 152.1,9.8 C151.9,9.4 151.7,9 151.3,8.7 C150.9,8.4 150.4,8.3 149.8,8.3 C149.5,8.3 149.1,8.3 148.8,8.4 C148.5,8.5 148.1,8.6 147.8,8.8 C147.4,9 147.1,9.2 146.6,9.6 C146.2,9.9 145.7,10.4 145.2,10.9 L145.2,25.1 L142.6,25.1 L142.6,12.2 C142.6,11.9 142.6,11.5 142.6,11 C142.6,10.6 142.5,10.1 142.3,9.7 C142.1,9.3 141.9,9 141.5,8.7 C141.1,8.4 140.6,8.3 139.9,8.3 C139.5,8.3 139.2,8.4 138.9,8.5 C138.6,8.6 138.2,8.8 137.8,9.1 C137.4,9.4 137.1,9.7 136.7,10.1 C136.3,10.5 135.9,11 135.4,11.6 L135.4,25.2 L132.8,25.2 L132.6,6.2 L132.6,6.2 Z" id="Path"></path>
        <path d="M159.5,0.2 L162.4,0.2 L162.4,3 L159.5,3 L159.5,0.2 Z M159.7,6.2 L162.3,6.2 L162.3,25.2 L159.7,25.2 L159.7,6.2 Z" id="Shape"></path>
        <polygon id="Path" points="189.2 2.3 189.2 11.8 199.2 11.8 199.2 2.3 202 2.3 202 25.1 199.2 25.1 199.2 14.1 189.2 14.1 189.2 25.1 186.4 25.1 186.4 2.3"></polygon>
        <path d="M208.4,16.4 C208.4,17.7 208.6,18.8 208.8,19.6 C209.1,20.5 209.4,21.2 209.9,21.7 C210.3,22.2 210.8,22.6 211.4,22.9 C211.9,23.1 212.5,23.2 213.1,23.2 C213.8,23.2 214.4,23.1 214.9,22.8 C215.4,22.6 215.8,22.3 216.2,21.9 C216.5,21.5 216.8,21.2 217,20.8 C217.2,20.4 217.3,20.1 217.4,19.8 L219.7,20.7 C219.1,22.2 218.3,23.3 217.2,24.2 C216.1,25 214.8,25.5 213.1,25.5 C211.5,25.5 210.2,25.2 209.3,24.5 C208.3,23.8 207.6,23 207,22 C206.5,21 206.1,19.9 205.9,18.8 C205.7,17.6 205.6,16.6 205.6,15.6 C205.6,14.6 205.7,13.6 205.9,12.4 C206.1,11.3 206.5,10.2 207,9.2 C207.5,8.2 208.3,7.4 209.3,6.7 C210.3,6 211.5,5.7 213.1,5.7 C214.4,5.7 215.5,6 216.3,6.5 C217.2,7 217.9,7.7 218.4,8.6 C218.9,9.5 219.3,10.4 219.6,11.6 C219.8,12.7 220,13.8 220,14.9 L220,16.3 L208.4,16.4 L208.4,16.4 Z M217.3,14.3 C217.3,13.4 217.2,12.6 217,11.9 C216.8,11.1 216.5,10.5 216.2,9.9 C215.8,9.3 215.4,8.9 214.9,8.6 C214.3,8.2 213.7,8 213,8 C211.6,8 210.6,8.6 209.8,9.7 C209,10.8 208.6,12.3 208.4,14.3 L217.3,14.3 L217.3,14.3 Z" id="Shape"></path>
        <path d="M223.6,0.2 L226.5,0.2 L226.5,3 L223.6,3 L223.6,0.2 Z M223.7,6.2 L226.3,6.2 L226.3,25.2 L223.7,25.2 L223.7,6.2 Z" id="Shape"></path>
        <path d="M231,6.2 L233.6,6.2 L233.6,9.2 C234.2,8.5 234.7,7.9 235.2,7.4 C235.7,7 236.2,6.6 236.6,6.4 C237,6.2 237.5,6 237.9,5.9 C238.3,5.8 238.7,5.8 239.1,5.8 C239.8,5.8 240.4,5.9 240.9,6.1 C241.4,6.3 241.8,6.6 242.1,6.9 C242.4,7.2 242.6,7.6 242.8,7.9 C243,8.3 243.1,8.6 243.2,8.9 C243.5,8.6 243.9,8.2 244.3,7.8 C244.7,7.4 245.1,7.1 245.6,6.8 C246.1,6.5 246.6,6.3 247.1,6.1 C247.7,5.9 248.3,5.8 249,5.8 C249.9,5.8 250.6,6 251.2,6.3 C251.8,6.6 252.2,7.1 252.5,7.6 C252.8,8.1 253,8.7 253.2,9.3 C253.3,9.9 253.4,10.5 253.4,11.1 L253.4,25.1 L250.8,25.1 L250.8,12.2 C250.8,11.9 250.8,11.6 250.8,11.1 C250.8,10.7 250.7,10.2 250.5,9.8 C250.3,9.4 250.1,9 249.7,8.7 C249.3,8.4 248.8,8.3 248.2,8.3 C247.9,8.3 247.5,8.3 247.2,8.4 C246.9,8.5 246.5,8.6 246.2,8.8 C245.8,9 245.5,9.2 245,9.6 C244.6,9.9 244.1,10.4 243.6,10.9 L243.6,25.1 L241,25.1 L241,12.2 C241,11.9 241,11.5 241,11 C241,10.6 240.9,10.1 240.7,9.7 C240.5,9.3 240.3,9 239.9,8.7 C239.5,8.4 239,8.3 238.3,8.3 C237.9,8.3 237.6,8.4 237.3,8.5 C237,8.6 236.6,8.8 236.2,9.1 C235.8,9.4 235.5,9.7 235.1,10.1 C234.7,10.5 234.3,11 233.8,11.6 L233.8,25.2 L231,25.2 L231,6.2 L231,6.2 Z" id="Path"></path>
        <path d="M258.8,6.2 L261.9,17 C262,17.4 262.1,17.8 262.2,18.2 C262.3,18.6 262.4,18.9 262.5,19.4 C262.6,19.8 262.7,20.2 262.8,20.7 C262.9,21.2 263.1,21.7 263.2,22.3 L263.4,22.3 C263.6,21.7 263.7,21.1 263.8,20.7 C263.9,20.2 264,19.8 264.1,19.4 C264.2,19 264.3,18.6 264.4,18.2 C264.5,17.8 264.6,17.4 264.7,17 L267.9,6.2 L270.5,6.2 L264.7,25.2 L261.4,25.2 L255.6,6.2 L258.8,6.2 Z" id="Path"></path>
        <path d="M275.8,24.5 C274.8,23.8 274.1,23 273.5,22 C272.9,21 272.6,19.9 272.4,18.8 C272.2,17.6 272.1,16.6 272.1,15.6 C272.1,14.4 272.2,13.2 272.5,12 C272.8,10.8 273.2,9.8 273.8,8.8 C274.4,7.9 275.2,7.1 276.1,6.6 C277.1,6 278.2,5.8 279.6,5.8 C281.2,5.8 282.4,6.1 283.4,6.8 C284.4,7.5 285.1,8.3 285.7,9.3 C286.2,10.3 286.6,11.4 286.8,12.5 C287,13.6 287.1,14.7 287.1,15.7 C287.1,16.9 287,18.1 286.7,19.3 C286.4,20.5 286,21.5 285.4,22.5 C284.8,23.4 284,24.2 283.1,24.7 C282.1,25.3 281,25.6 279.6,25.6 C278.1,25.5 276.8,25.2 275.8,24.5 Z M277.3,8.7 C276.7,9.1 276.2,9.7 275.9,10.4 C275.5,11.1 275.3,11.9 275.2,12.8 C275.1,13.7 275,14.6 275,15.5 C275,16.4 275.1,17.4 275.2,18.3 C275.3,19.2 275.6,20 275.9,20.8 C276.3,21.5 276.7,22.1 277.3,22.6 C277.9,23.1 278.7,23.3 279.6,23.3 C280.5,23.3 281.3,23.1 281.9,22.6 C282.5,22.2 283,21.6 283.3,20.8 C283.6,20.1 283.9,19.3 284,18.3 C284.1,17.4 284.2,16.5 284.2,15.5 C284.2,14.6 284.1,13.7 284,12.8 C283.9,11.9 283.6,11.1 283.3,10.4 C282.9,9.7 282.5,9.1 281.9,8.7 C281.3,8.2 280.5,8 279.6,8 C278.7,8 277.9,8.3 277.3,8.7 Z" id="Shape"></path>
        <path d="M290.6,6.2 L293.2,6.2 L293.2,9.6 L293.3,9.6 C294.1,8.4 295,7.6 296,7 C297,6.4 298.1,6.1 299.2,6.1 L299.2,8.9 C298.9,8.9 298.5,8.9 298,8.9 C297.6,8.9 297.1,9 296.6,9.3 C296.1,9.5 295.5,9.8 295,10.2 C294.4,10.6 293.9,11.2 293.3,12 L293.3,25.1 L290.7,25.1 L290.6,6.2 L290.6,6.2 Z" id="Path"></path>
        <path d="M314.5,16.4 C314.5,17.7 314.7,18.8 315,19.6 C315.3,20.5 315.6,21.2 316.1,21.7 C316.5,22.2 317,22.6 317.6,22.9 C318.1,23.1 318.7,23.2 319.3,23.2 C320,23.2 320.6,23.1 321.1,22.8 C321.6,22.6 322,22.3 322.4,21.9 C322.7,21.5 323,21.2 323.2,20.8 C323.4,20.4 323.5,20.1 323.6,19.8 L325.9,20.7 C325.3,22.2 324.5,23.3 323.4,24.2 C322.3,25 321,25.5 319.3,25.5 C317.7,25.5 316.4,25.2 315.5,24.5 C314.5,23.8 313.8,23 313.2,22 C312.7,21 312.3,19.9 312.1,18.8 C311.9,17.6 311.8,16.6 311.8,15.6 C311.8,14.6 311.9,13.6 312.1,12.4 C312.3,11.3 312.7,10.2 313.2,9.2 C313.7,8.2 314.5,7.4 315.5,6.7 C316.5,6 317.7,5.7 319.3,5.7 C320.6,5.7 321.7,6 322.5,6.5 C323.4,7 324.1,7.7 324.6,8.6 C325.1,9.5 325.5,10.4 325.8,11.6 C326,12.7 326.2,13.8 326.2,14.9 L326.2,16.3 L314.5,16.4 L314.5,16.4 Z M323.4,14.3 C323.4,13.4 323.3,12.6 323.1,11.9 C322.9,11.1 322.6,10.5 322.3,9.9 C321.9,9.3 321.5,8.9 321,8.6 C320.5,8.3 319.9,8.1 319.1,8.1 C317.7,8.1 316.7,8.7 315.9,9.8 C315.1,10.9 314.7,12.4 314.5,14.4 L323.4,14.3 L323.4,14.3 Z" id="Shape"></path>
        <path d="M329.7,0.2 L332.6,0.2 L332.6,3 L329.7,3 L329.7,0.2 Z M329.9,6.2 L332.5,6.2 L332.5,25.2 L329.9,25.2 L329.9,6.2 Z" id="Shape"></path>
        <polygon id="Path" points="337.4 0.2 340 0.2 340 25.1 337.4 25.1"></polygon>
        <path d="M303.2,3 L305.8,1.8 L305.8,6.2 L310,6.2 L310,8.4 L305.8,8.4 L305.8,20.3 C305.8,20.7 305.8,21.1 305.9,21.4 C305.9,21.8 306,22.1 306.2,22.4 C306.3,22.7 306.6,22.9 306.8,23.1 C307.1,23.3 307.5,23.4 307.9,23.4 C308.3,23.4 308.7,23.4 309,23.3 C309.3,23.2 309.7,23.1 310.1,22.9 L310.1,25 C309.6,25.2 309.1,25.4 308.6,25.4 C308.1,25.5 307.8,25.5 307.6,25.5 C306.6,25.5 305.9,25.3 305.3,25 C304.7,24.7 304.3,24.3 304,23.8 C303.7,23.3 303.5,22.8 303.4,22.2 C303.3,21.6 303.2,21.1 303.2,20.5 L303.2,8.4 L300.5,8.4 L300.5,6.2 L303.2,6.2 L303.2,3 L303.2,3 Z" id="Path"></path>
      </g>
      <g id="logo">
        <polygon id="Path" fill="#00AAA5" points="0 64.7 0 81.7 30.5 81.7 30.5 64.7"></polygon>
        <polygon id="Path" fill="#00AAA5" points="0 0 0 16.9 30.5 16.9 30.5 0"></polygon>
        <polygon id="Path" fill="#00AAA5" points="0 32.4 0 49.3 30.5 49.3 30.5 32.4"></polygon>
        <path d="M100,56 C100.7,58.9 101.8,61.5 103.3,63.5 C104.7,65.6 106.4,67.3 108.3,68.7 C110.2,70.1 112.1,71 114.2,71.7 C116.3,72.3 118.2,72.6 120.1,72.6 C124.4,72.6 128,71.6 131,69.5 C134,67.4 136.2,65 137.6,62.4 L149.1,62.4 C147.6,66.4 145.7,69.7 143.4,72.3 C141.1,74.9 138.5,77.1 135.9,78.6 C133.2,80.2 130.5,81.3 127.6,82 C124.8,82.7 122.2,83 119.8,83 C115.5,83 111.4,82.1 107.6,80.4 C103.8,78.7 100.5,76.3 97.7,73.4 C94.9,70.5 92.7,67 91.1,63.2 C89.5,59.3 88.7,55.2 88.7,50.9 C88.7,46.3 89.5,42.1 91.2,38.2 C92.9,34.3 95.1,30.9 97.9,28 C100.7,25.1 104,22.9 107.8,21.3 C111.6,19.7 115.6,18.9 120,18.9 C124.1,18.9 128,19.7 131.8,21.3 C135.5,22.9 138.9,25.1 141.7,27.9 C144.6,30.7 146.8,34 148.5,37.8 C150.2,41.6 151,45.8 151,50.3 C151,51.3 151,52.5 150.9,53.7 C150.8,54.9 150.8,55.8 150.7,56.1 L100,56 L100,56 Z M139.5,47.2 C139.4,45 138.8,42.8 137.7,40.6 C136.7,38.4 135.3,36.5 133.5,34.9 C131.7,33.2 129.7,31.9 127.3,30.9 C125,29.9 122.4,29.4 119.7,29.4 C116.9,29.4 114.4,29.9 112,30.9 C109.7,31.9 107.6,33.3 105.9,34.9 C104.1,36.6 102.7,38.5 101.7,40.6 C100.7,42.8 100.1,45 99.9,47.2 L139.5,47.2 Z" id="Shape" fill="#00AAA5"></path>
        <polygon id="Path" fill="#00AAA5" points="172 81.6 160.5 81.6 160.5 0 172 0"></polygon>
        <path d="M191.5,56 C192.2,58.9 193.3,61.5 194.8,63.5 C196.2,65.6 197.9,67.3 199.8,68.7 C201.7,70.1 203.6,71 205.7,71.7 C207.8,72.3 209.7,72.6 211.7,72.6 C216,72.6 219.6,71.6 222.6,69.5 C225.6,67.4 227.8,65 229.2,62.4 L240.7,62.4 C239.2,66.4 237.3,69.7 235,72.3 C232.6,74.9 230.1,77.1 227.5,78.6 C224.8,80.2 222.1,81.3 219.2,82 C216.4,82.7 213.8,83 211.4,83 C207.1,83 203,82.1 199.2,80.4 C195.4,78.7 192.1,76.3 189.3,73.4 C186.5,70.5 184.3,67 182.7,63.2 C181.1,59.3 180.3,55.2 180.3,50.9 C180.3,46.3 181.1,42.1 182.8,38.2 C184.5,34.3 186.7,30.9 189.5,28 C192.3,25.1 195.6,22.9 199.4,21.3 C203.2,19.7 207.2,18.9 211.6,18.9 C215.7,18.9 219.6,19.7 223.4,21.3 C227.1,22.9 230.5,25.1 233.3,27.9 C236.2,30.7 238.4,34 240.1,37.8 C241.8,41.6 242.6,45.8 242.6,50.3 C242.6,51.3 242.6,52.5 242.5,53.7 C242.4,54.9 242.4,55.8 242.3,56.1 L191.5,56 L191.5,56 Z M231,47.2 C230.9,45 230.3,42.8 229.2,40.6 C228.2,38.4 226.8,36.5 225,34.9 C223.2,33.2 221.2,31.9 218.8,30.9 C216.5,29.9 213.9,29.4 211.2,29.4 C208.4,29.4 205.9,29.9 203.5,30.9 C201.2,31.9 199.1,33.3 197.4,34.9 C195.6,36.6 194.2,38.5 193.2,40.6 C192.2,42.8 191.6,45 191.4,47.2 L231,47.2 Z" id="Shape" fill="#00AAA5"></path>
        <rect id="Rectangle" fill="#FFFFFF" x="255.5" y="0" width="11.9" height="81.6"></rect>
        <path d="M321.6,28.1 C320.3,23.5 318.1,19.1 315.2,15 C313.7,12.9 311.9,10.9 309.8,9 C307.7,7.2 305.4,5.6 302.6,4.3 C299.9,3 296.8,1.9 293.4,1.2 C290.1,0.4 286.2,0 282,0 L273.2,0 L273.2,10.9 L281.9,10.9 C287.5,10.9 292.2,11.9 296,13.9 C299.8,15.9 302.8,18.4 305.2,21.3 C307.5,24.3 309.2,27.5 310.3,31.1 C311.3,34.6 311.8,37.9 311.8,41 C311.8,46.7 310.9,51.4 309.1,55.2 C307.3,59 305,62 302.1,64.3 C299.2,66.6 296,68.2 292.5,69.2 C289,70.2 285.4,70.7 281.8,70.7 L273.3,70.7 L273.3,81.6 L281.7,81.6 C287.4,81.6 293,80.8 298.4,79.2 C303.8,77.6 308.9,74.5 313.6,69.8 C315.1,68.3 316.5,66.5 317.8,64.3 C319,62.1 320.1,59.8 321,57.2 C321.9,54.7 322.6,52 323.1,49.3 C323.6,46.5 323.9,43.8 323.9,41 C323.6,37 323,32.7 321.6,28.1 Z" id="Path" fill="#FFFFFF"></path>
        <path d="M382.9,81.6 L382.9,72.1 L382.7,72.1 C380.5,75.8 377.5,78.6 373.8,80.4 C370.1,82.2 366.1,83.1 361.9,83.1 C356.8,83.1 352.2,82.2 348.1,80.4 C344.1,78.6 340.7,76.2 337.9,73.2 C335.1,70.2 333,66.8 331.6,63 C330.2,59.2 329.5,55.2 329.5,51.2 C329.5,47.5 330.2,43.7 331.5,39.8 C332.8,36 334.8,32.5 337.5,29.4 C340.2,26.3 343.5,23.7 347.6,21.7 C351.6,19.7 356.4,18.7 361.9,18.7 C366.2,18.7 370.1,19.6 373.8,21.3 C377.5,23 380.4,25.6 382.6,29 L382.8,29 L382.8,21.4 L394.3,21.4 L394.3,81.4 L382.9,81.4 L382.9,81.6 L382.9,81.6 Z M383.1,51.1 C383.1,47.9 382.5,44.9 381.4,42.2 C380.3,39.5 378.8,37.2 376.9,35.3 C375,33.4 372.8,31.9 370.2,30.8 C367.6,29.7 364.9,29.2 361.9,29.2 C358.4,29.2 355.3,29.9 352.7,31.2 C350.1,32.6 347.9,34.3 346.1,36.4 C344.3,38.5 343,40.9 342.2,43.5 C341.4,46.1 340.9,48.6 340.9,51 C340.9,53.8 341.4,56.5 342.4,59 C343.4,61.6 344.9,63.8 346.7,65.8 C348.5,67.8 350.7,69.4 353.3,70.6 C355.9,71.8 358.7,72.4 361.7,72.4 C364.7,72.4 367.5,71.8 370.1,70.7 C372.7,69.6 374.9,68 376.8,66.1 C378.7,64.2 380.2,61.9 381.3,59.3 C382.6,56.9 383.1,54.1 383.1,51.1 Z" id="Shape" fill="#FFFFFF"></path>
        <polygon id="Path" fill="#FFFFFF" points="422.5 81.6 411 81.6 411 32 402.7 32 402.7 21.5 411 21.5 411 0 422.5 0 422.5 21.5 432.5 21.5 432.5 32 422.5 32"></polygon>
        <path d="M488.5,81.6 L488.5,72.1 L488.3,72.1 C486.1,75.8 483.1,78.6 479.4,80.4 C475.7,82.2 471.7,83.1 467.6,83.1 C462.5,83.1 457.9,82.2 453.8,80.4 C449.8,78.6 446.4,76.2 443.6,73.2 C440.8,70.2 438.7,66.8 437.3,63 C435.9,59.2 435.2,55.2 435.2,51.2 C435.2,47.5 435.9,43.7 437.2,39.8 C438.5,36 440.5,32.5 443.2,29.4 C445.9,26.3 449.2,23.7 453.3,21.7 C457.3,19.7 462.1,18.7 467.6,18.7 C471.9,18.7 475.8,19.6 479.5,21.3 C483.2,23 486.1,25.6 488.3,29 L488.5,29 L488.5,21.4 L500,21.4 L500,81.4 L488.5,81.4 L488.5,81.6 Z M488.8,51.1 C488.8,47.9 488.3,44.9 487.1,42.2 C486,39.5 484.5,37.2 482.6,35.3 C480.7,33.4 478.4,31.9 475.9,30.8 C473.3,29.7 470.6,29.2 467.6,29.2 C464.1,29.2 461,29.9 458.4,31.2 C455.8,32.6 453.6,34.3 451.8,36.4 C450,38.5 448.7,40.9 447.9,43.5 C447.1,46.1 446.6,48.6 446.6,51 C446.6,53.8 447.1,56.5 448.1,59 C449.1,61.6 450.6,63.8 452.4,65.8 C454.2,67.8 456.4,69.4 459,70.6 C461.6,71.8 464.4,72.4 467.4,72.4 C470.4,72.4 473.2,71.8 475.8,70.7 C478.4,69.6 480.6,68 482.5,66.1 C484.4,64.2 485.9,61.9 487,59.3 C488.2,56.9 488.8,54.1 488.8,51.1 Z" id="Shape" fill="#FFFFFF"></path>
        <rect id="Rectangle" fill="#00AAA5" x="64.9" y="16.6" width="11.9" height="65"></rect>
        <rect id="Rectangle" fill="#00AAA5" x="43.8" y="0.1" width="76" height="10.9"></rect>
      </g>
    </g>
  </g>
</svg>