<svg width="140px" height="40px" viewBox="0 0 70 18" version="1.1" xmlns="http://www.w3.org/2000/svg" xmlns:xlink="http://www.w3.org/1999/xlink">
    <title>top navigation/icon/logo/off</title>
    <g id="Symbols" stroke="none" stroke-width="1" fill="none" fill-rule="evenodd">
        <g id="top-navigation/icon/logo/default" transform="translate(0.000000, -3.000000)" fill="#FF3C00" fill-rule="nonzero">
            <g id="top-navigation/icon/logo/off" transform="translate(0.000000, 3.000000)">
                <path d="M17.4795322,7.28654971 C17.6432749,7.28654971 17.7251462,7.40935673 17.6842105,7.57309942 L13.6315789,17.3567251 C13.5497076,17.5204678 13.3859649,17.6432749 13.2222222,17.6432749 L8.55555556,17.6432749 C8.55555556,17.6432749 8.55555556,17.6432749 8.55555556,17.6432749 L7.53216374,17.6432749 C7.36842105,17.6432749 7.16374269,17.5204678 7.12280702,17.3567251 L0.16374269,0.49122807 C0.081871345,0.32748538 0.16374269,0.204678363 0.368421053,0.204678363 L5.03508772,0.204678363 C5.19883041,0.204678363 5.40350877,0.32748538 5.44444444,0.49122807 L10.3976608,12.4853801 L12.4444444,7.57309942 C12.5263158,7.40935673 12.6900585,7.28654971 12.8538012,7.28654971 L17.4795322,7.28654971 M20.4269006,0.204678363 L15.7602339,0.204678363 C15.5964912,0.204678363 15.3918129,0.32748538 15.3508772,0.49122807 L13.9181287,4.01169591 C13.877193,4.13450292 13.9181287,4.25730994 14.0818713,4.25730994 L18.8304094,4.25730994 C18.9532164,4.25730994 19.1169591,4.13450292 19.1988304,4.01169591 L20.6315789,0.49122807 C20.6725146,0.32748538 20.5906433,0.204678363 20.4269006,0.204678363" id="Shape"></path>
                <path d="M38.8888889,13.5906433 C38.7660819,13.5906433 38.6432749,13.4678363 38.6432749,13.3450292 L38.6432749,10.9707602 C38.6432749,10.8479532 38.7660819,10.7251462 38.8888889,10.7251462 L46.1754386,10.7251462 C46.2982456,10.7251462 46.4210526,10.6023392 46.4210526,10.4795322 L46.4210526,7.57309942 C46.4210526,7.4502924 46.2982456,7.32748538 46.1754386,7.32748538 L38.8888889,7.32748538 C38.7660819,7.32748538 38.6432749,7.20467836 38.6432749,7.08187135 L38.6432749,4.50292398 C38.6432749,4.38011696 38.7660819,4.25730994 38.8888889,4.25730994 L47.2807018,4.25730994 C47.4035088,4.25730994 47.5263158,4.13450292 47.5263158,4.01169591 L47.5263158,0.49122807 C47.5263158,0.368421053 47.4035088,0.245614035 47.2807018,0.245614035 L34.0584795,0.245614035 C33.9356725,0.245614035 33.8128655,0.368421053 33.8128655,0.49122807 L33.8128655,17.3976608 C33.8128655,17.5204678 33.9356725,17.6432749 34.0584795,17.6432749 L48.0584795,17.6432749 C48.1812865,17.6432749 48.3040936,17.5204678 48.3040936,17.3976608 L48.3040936,13.877193 C48.3040936,13.754386 48.1812865,13.6315789 48.0584795,13.6315789 L38.8888889,13.6315789 L38.8888889,13.5906433 Z" id="Path"></path>
                <path d="M23.9473684,0.409356725 L23.9473684,17.3567251 C23.9473684,17.4795322 24.0701754,17.6023392 24.1929825,17.6023392 L28.5321637,17.6023392 C28.6549708,17.6023392 28.7777778,17.4795322 28.7777778,17.3567251 L28.7777778,0.409356725 C28.7777778,0.286549708 28.6549708,0.16374269 28.5321637,0.16374269 L24.1929825,0.16374269 C24.0701754,0.204678363 23.9473684,0.286549708 23.9473684,0.409356725 Z" id="Path"></path>
                <path d="M69.5906433,17.3567251 C69.6725146,17.4385965 69.5906433,17.6023392 69.4678363,17.6023392 L64.9649123,17.6023392 C64.7602339,17.6023392 64.6374269,17.5204678 64.5146199,17.3567251 L60.6666667,12.4853801 C60.5847953,12.3625731 60.380117,12.2807018 60.2573099,12.2807018 L57.8011696,12.2807018 C57.6783626,12.2807018 57.5555556,12.4035088 57.5555556,12.5263158 L57.5555556,17.3157895 C57.5555556,17.4385965 57.4327485,17.5614035 57.3099415,17.5614035 L52.9707602,17.5614035 C52.8479532,17.5614035 52.7251462,17.4385965 52.7251462,17.3157895 L52.7251462,0.450292398 C52.7251462,0.32748538 52.8479532,0.204678363 52.9707602,0.204678363 C52.9707602,0.204678363 60.1754386,0.204678363 62.5497076,0.204678363 L62.5497076,0.204678363 C65.8245614,0.32748538 68.7309942,2.98830409 68.6900585,6.34502924 L68.6900585,6.34502924 C68.6900585,8.80116959 67.5438596,10.8888889 65.619883,11.7894737 C65.5789474,11.8304094 65.4152047,11.9122807 65.4152047,11.9122807 M64.0233918,6.46783626 C64.0233918,4.95321637 63.2046784,4.21637427 61.6900585,4.21637427 L57.8011696,4.21637427 C57.6783626,4.21637427 57.5555556,4.33918129 57.5555556,4.4619883 L57.5555556,8.39181287 C57.5555556,8.51461988 57.6783626,8.6374269 57.8011696,8.6374269 L61.6900585,8.6374269 C63.2046784,8.67836257 64.0233918,8.02339181 64.0233918,6.46783626" id="Shape"></path>
            </g>
        </g>
    </g>
</svg>